<svg xmlns="http://www.w3.org/2000/svg" viewBox="0 0 438.857 438.857"><path d="M219.429 438.857C98.22 438.857 0 340.637 0 219.429S98.22 0 219.429 0s219.429 98.22 219.429 219.429-98.221 219.428-219.429 219.428zm0-407.51c-103.967 0-188.082 84.114-188.082 188.082S115.461 407.51 219.429 407.51 407.51 323.396 407.51 219.429 323.396 31.347 219.429 31.347z" fill="#1185e0"/><path d="M308.245 203.755h-73.143v-73.143c0-8.882-6.792-15.673-15.673-15.673-8.882 0-15.673 6.792-15.673 15.673v73.143h-73.143c-8.882 0-15.673 6.792-15.673 15.673 0 8.882 6.792 15.673 15.673 15.673h73.143v73.143c0 8.882 6.792 15.673 15.673 15.673 8.882 0 15.673-6.792 15.673-15.673v-73.143h73.143c8.882 0 15.673-6.792 15.673-15.673s-6.792-15.673-15.673-15.673z" fill="#4dcfe0"/></svg>