<svg xmlns="http://www.w3.org/2000/svg" viewBox="0 0 512 512"><path fill="#eeba7d" d="M39.54 365.237L0 512l146.763-39.54 282.253-282.253L321.793 82.984z"/><path fill="#e68d2c" d="M0 512l146.763-39.54 282.253-282.253-53.611-53.612z"/><path d="M375.405 136.595l-53.611-53.611L66.345 338.432c-14.805 14.805-14.805 38.807 0 53.612s38.807 14.805 53.611 0c-14.805 14.805-14.805 38.807 0 53.611 14.805 14.805 38.807 14.805 53.611 0l255.448-255.448-53.61-53.612z" fill="#80cdd8"/><path d="M173.568 445.655c-14.805 14.805-38.807 14.805-53.611 0-14.805-14.805-14.805-38.807 0-53.612l255.448-255.448 53.611 53.611-255.448 255.449z" fill="#5293a9"/><path d="M500.698 63.953l-52.65-52.65c-15.07-15.069-39.502-15.069-54.573 0L352.65 52.128l107.223 107.223 40.825-40.825c15.07-15.071 15.07-39.504 0-54.573z" fill="#e06b34"/><path d="M500.698 63.953l-26.326-26.326-68.112 68.112 53.612 53.612 40.825-40.825c15.071-15.071 15.071-39.504.001-54.573z" fill="#d1393c"/><path fill="#aaa" d="M432.7 206.936L305.068 79.303l51.581-51.581 127.632 127.632z"/><path d="M432.697 206.939l-63.812-63.813 51.581-51.581 63.813 63.812zM0 512l80.152-21.594-58.558-58.559z" fill="#818181"/><path fill="#595959" d="M0 512l80.152-21.594-29.278-29.28z"/></svg>