<svg xmlns="http://www.w3.org/2000/svg" viewBox="0 0 512 512"><path fill="#e9e9e9" d="M55.652 16.696h400.696v478.609H55.652z"/><path fill="#d4d4d4" d="M256 16.696h200.348v478.609H256z"/><path d="M418.685 307.024H93.315C41.862 307.024 0 265.163 0 213.709v-86.646h55.652v33.391H33.391v53.255c0 33.042 26.882 59.924 59.924 59.924h325.368c33.043 0 59.924-26.882 59.924-59.924v-53.255h-22.261v-33.391h55.652v86.646c.002 51.454-41.86 93.315-93.313 93.315z" fill="#595959"/><path d="M418.685 307.024H256v-33.391h162.685c33.043 0 59.924-26.882 59.924-59.924v-53.255h-22.261v-33.391H512v86.646c0 51.454-41.862 93.315-93.315 93.315z" fill="#444242"/><path d="M137.04 16.696v116.599c0 16.439 13.326 29.765 29.765 29.765s29.765-13.326 29.765-29.765V118.72c0-16.439 13.326-29.765 29.765-29.765S256.1 102.281 256.1 118.72v58.356c0 16.439 13.326 29.765 29.765 29.765s29.765-13.326 29.765-29.765V16.696H137.04z" fill="#e06b34"/><path d="M27.186 0h457.628v33.391H27.186zm0 478.609h457.628V512H27.186z" fill="#aaa"/><path d="M256 0h228.808v33.391H256zm0 478.609h228.808V512H256z" fill="#818181"/></svg>