<svg xmlns="http://www.w3.org/2000/svg" viewBox="0 0 512.001 512.001"><path d="M256 512H15c-8.284 0-15-6.715-15-15V256c0-8.284 6.716-15 15-15h241c8.284 0 15 6.716 15 15v241c0 8.286-6.716 15-15 15zM30 482h211V271H30v211z" fill="#00479b"/><path d="M256 241H135.5v30H241v211H135.5v30H256c8.284 0 15-6.715 15-15V256c0-8.283-6.716-15-15-15z" fill="#003068"/><path d="M507.607 73.249L438.749 4.395a14.999 14.999 0 00-21.212-.001l-68.854 68.857c-5.858 5.856-5.859 15.354-.001 21.211l68.854 68.855a14.94 14.94 0 0010.607 4.393 14.942 14.942 0 0010.605-4.391l68.858-68.857a14.997 14.997 0 00.001-21.213z" fill="#ff728b"/><path d="M512.001 83.859c0-3.979-1.581-7.795-4.394-10.609l-34.428-34.427-90.069 90.068 34.427 34.428a14.94 14.94 0 0010.607 4.393 14.942 14.942 0 0010.605-4.391l68.858-68.857a15 15 0 004.394-10.605z" fill="#ff3f62"/><path d="M438.749 142.106L369.896 73.25c-5.858-5.857-15.355-5.857-21.213 0L245.394 176.534a14.994 14.994 0 00-4.393 10.607L241 256c.001 8.285 6.717 15 15 15h68.857c3.979 0 7.793-1.58 10.607-4.393l103.285-103.289c5.859-5.857 5.859-15.353 0-21.212z" fill="#ffe477"/><path d="M438.749 163.319c5.859-5.857 5.859-15.354 0-21.213l-34.427-34.428-158.928 158.928A14.945 14.945 0 00256 271h68.857c3.979 0 7.793-1.58 10.607-4.393l103.285-103.288z" fill="#ffb655"/></svg>