<svg height="511pt" viewBox="-33 1 511 511.999" width="511pt" xmlns="http://www.w3.org/2000/svg"><path d="M205.48 339.32h-30.066v-86.855H415.95v-135.3h-45.105V87.097h75.172V282.53H205.48zm0 0" fill="#dad0cb"/><path d="M370.844 87.098v30.066h45.105v135.3H190.434v86.856h15.046v-56.789h240.536V87.098zm0 0" fill="#c6bcb7"/><path d="M135.32 324.29h110.25V512H135.32zm0 0" fill="#d11372"/><path d="M.5 73.676v89.746c0 22.52 20.656 40.836 46.047 40.836h287.77c25.39 0 46.046-18.32 46.046-40.836V73.676zm0 0" fill="#f3eee9"/><path d="M190.434 73.676v130.582h143.882c25.391 0 46.047-18.32 46.047-40.836V73.676zm0 0" fill="#e9dfda"/><path d="M334.316 0H46.546C21.157 0 .5 20.656.5 46.047v78.922l2.926 3.972c8.488 11.528 22.086 18.41 36.383 18.41h12.046c24.903 0 45.16-20.257 45.16-45.156 0-8.324 6.77-15.093 15.094-15.093h12.047c8.324 0 15.094 6.77 15.094 15.093 0 24.899 20.258 45.157 45.156 45.157h12.051c24.902 0 45.16-20.258 45.16-45.157 0-8.324 6.77-15.093 15.09-15.093h12.05c8.321 0 15.095 6.77 15.095 15.093 0 24.899 20.257 45.157 45.156 45.157h12.05c14.294 0 27.895-6.883 36.38-18.41l2.93-3.973V46.047C380.362 20.657 359.706 0 334.315 0zm0 0" fill="#7ed6f4"/><path d="M334.316 0H190.434v147.352h6.023c24.898 0 45.156-20.258 45.156-45.16 0-8.32 6.774-15.09 15.094-15.09h12.05c8.321 0 15.09 6.77 15.09 15.09 0 24.902 20.258 45.16 45.16 45.16h12.052c14.293 0 27.89-6.883 36.378-18.41l2.926-3.977V46.047C380.363 20.657 359.707 0 334.316 0zm0 0" fill="#0fa7db"/><path d="M190.434 324.29h55.136V512h-55.136zm0 0" fill="#b20042"/></svg>