<svg xmlns="http://www.w3.org/2000/svg" viewBox="0 0 512 512"><path d="M372.647 469.22h-146.71l73.383-73.294-169.556-169.768L3.135 352.635c-4.18 4.174-4.18 11.004 0 15.178l109.621 109.491c4.179 4.174 12.43 7.589 18.336 7.589h241.555a7.837 7.837 0 100-15.673z" fill="#22e0c3"/><path d="M425.71 125.211L216.615 334.05l71.537 71.455c2.09 2.087 5.508 2.087 7.597 0l201.499-201.248c2.091-2.088 2.091-5.502 0-7.589l-71.538-71.457z" fill="#4351b5"/><path d="M23.585 388.241L157.78 254.209l-28.017-28.051L3.135 352.635c-4.18 4.174-4.18 11.004 0 15.178l20.45 20.428z" opacity=".1"/><path d="M334.877 453.563c-2.092 2.085-5.514 2.085-7.607 0l-12.681-12.635a5.361 5.361 0 010-7.58l12.68-12.633c2.093-2.085 5.516-2.085 7.608 0l12.68 12.633a5.362 5.362 0 01.001 7.58l-12.681 12.635zm141.39-9.831c-2.092 2.085-5.515 2.085-7.607 0l-12.68-12.635a5.362 5.362 0 010-7.58l12.68-12.632c2.092-2.085 5.516-2.085 7.608 0l12.68 12.633a5.36 5.36 0 01.001 7.58l-12.682 12.634z" fill="#22e0c3"/><path d="M395.699 394.396c-2.092 2.085-5.515 2.085-7.607 0l-12.682-12.635a5.361 5.361 0 01.001-7.58l12.681-12.633c2.092-2.085 5.515-2.085 7.608 0l12.679 12.633a5.361 5.361 0 01.001 7.58l-12.681 12.635zm108.464 90.497H406.62a7.837 7.837 0 01-7.837-7.837 7.837 7.837 0 017.837-7.837h97.543a7.837 7.837 0 017.837 7.837 7.837 7.837 0 01-7.837 7.837z" fill="#4bc8dd"/><path d="M246.863 448.319l-22.797-22.8a7.838 7.838 0 00-11.084 11.083l22.79 22.793 11.091-11.076zm1.901-47.502a7.838 7.838 0 00-11.082-.001 7.835 7.835 0 00-.001 11.083l22.808 22.81 11.09-11.077-22.815-22.815z" fill="#38ccaa"/><path fill="#fff297" d="M369.635 69.2L160.54 278.039l40.761 40.715 209.097-208.837z"/><path d="M373.4 72.96l-44.34-44.288c-2.09-2.087-5.508-2.087-7.597 0L119.964 229.921c-2.089 2.088-2.09 5.502 0 7.589l44.34 44.289L373.4 72.96z" fill="#4351b5"/><path d="M140.512 258.034L349.607 49.196l-20.548-20.524c-2.09-2.087-5.508-2.087-7.597 0L119.964 229.921c-2.089 2.088-2.09 5.502 0 7.589l20.548 20.524z" opacity=".1"/><path fill="#ffd655" d="M404.114 103.641L195.021 312.474l29.204 29.176 209.093-208.836z"/></svg>