<svg xmlns="http://www.w3.org/2000/svg" viewBox="0 0 412.212 412.212"><path d="M409.6 214.988c0-.523 0-.523 0 0 .522-1.045 1.045-2.09 1.567-2.612v-.522c0-.522.522-1.567.522-2.09 0-1.045.522-2.09.522-3.135s0-2.09-.522-3.135c0-.522-.522-1.567-.522-2.09v-1.045c-.522-1.045-1.045-1.567-1.045-2.612v-.522c-.522-1.045-1.045-1.567-2.09-2.612l-61.649-60.082c-6.269-6.269-16.196-6.269-21.943 0-6.269 6.269-6.269 16.196 0 21.943l33.959 33.959H53.29l33.959-33.959c6.269-6.269 6.269-16.196 0-21.943-6.269-6.269-16.196-6.269-21.943 0L4.18 195.135c-.522.522-1.567 1.567-2.09 2.612v.522c-.522.522-1.045 1.567-1.045 2.612v.522c0 .522-.522 1.567-.522 2.09 0 1.045-.522 2.09-.522 3.135s0 2.09.522 3.135c0 1.045.522 1.567.522 2.09v.522c.522 1.045 1.045 1.567 1.045 2.612v.522c.522 1.045 1.045 1.567 2.09 2.612l61.127 60.604c3.135 3.135 6.792 4.702 10.971 4.702 4.18 0 7.837-1.567 10.971-4.702 6.269-6.269 6.269-16.196 0-21.943L53.29 221.78H358.4l-33.959 33.959c-6.269 6.269-6.269 16.196 0 21.943 3.135 3.135 7.314 4.702 10.971 4.702 4.18 0 7.837-1.567 10.971-4.702l61.127-60.604c1.045-.523 1.568-1.568 2.09-2.09z" fill="#1185e0"/><path d="M255.478 324.702l-33.959 33.959V53.551l33.959 33.959c3.135 3.135 7.314 4.702 10.971 4.702 4.18 0 7.837-1.567 10.971-4.702 6.269-6.269 6.269-16.196 0-21.943L216.816 4.441c-.522-.522-1.567-1.567-2.612-2.09h-.522c-.522-.522-1.567-1.045-2.612-1.045h-.522c-.522-.522-1.567-.522-2.09-.522-1.045 0-2.09-.522-3.135-.522s-2.09 0-3.135.522c-.522 0-1.567.522-2.09.522h-.522c-1.045.522-1.567 1.045-2.612 1.045h-.522c-1.045.522-1.567 1.045-2.612 2.09l-59.559 61.127c-6.269 6.269-6.269 16.196 0 21.943 6.269 6.269 16.196 6.269 21.943 0l33.959-33.959v305.11l-33.959-33.959c-6.269-6.269-16.196-6.269-21.943 0-6.269 6.269-6.269 16.196 0 21.943l60.604 61.127c.522.522 1.567 1.567 2.612 2.09h.522c.522.522 1.567 1.045 2.612 1.045h1.045c.522 0 1.567.522 2.09.522 1.045 0 2.09.522 3.135.522s2.09 0 3.135-.522c.522 0 1.567-.522 2.09-.522h.522c1.045-.522 1.567-.522 2.09-1.045h.522c1.045-.522 1.567-1.045 2.612-2.09l60.604-61.127c6.269-6.269 6.269-16.196 0-21.943-7.315-6.27-17.242-6.27-22.988-.001z" fill="#4dcfe0"/></svg>