<svg xmlns="http://www.w3.org/2000/svg" viewBox="0 0 512.005 512.005"><path fill="#eeba7d" d="M39.544 365.239L.004 512.002l146.763-39.54L429.02 190.209 321.797 82.986z"/><path fill="#e68d2c" d="M.004 512.002l146.763-39.54L429.02 190.209l-53.611-53.612z"/><path d="M375.409 136.597l-53.611-53.611L66.349 338.434c-14.805 14.805-14.805 38.807 0 53.612s38.807 14.805 53.611 0c-14.805 14.805-14.805 38.807 0 53.611 14.805 14.805 38.807 14.805 53.611 0l255.448-255.448-53.61-53.612z" fill="#e06b34"/><path d="M173.572 445.657c-14.805 14.805-38.807 14.805-53.611 0-14.805-14.805-14.805-38.807 0-53.612l255.448-255.448 53.611 53.611-255.448 255.449z" fill="#d1393c"/><path d="M500.702 63.955l-52.65-52.65c-15.069-15.069-39.502-15.069-54.573 0L352.654 52.13l107.223 107.223 40.825-40.825c15.07-15.071 15.07-39.503 0-54.573z" fill="#80cdd8"/><path d="M500.702 63.955l-26.326-26.326-68.112 68.112 53.612 53.612 40.825-40.825c15.071-15.071 15.071-39.503.001-54.573z" fill="#5293a9"/><path fill="#aaa" d="M432.704 206.937L305.07 79.305l51.582-51.581 127.632 127.632z"/><path d="M432.7 206.94l-63.811-63.812 51.581-51.581 63.812 63.812zM.004 512.002l80.153-21.594-58.559-58.559z" fill="#818181"/><path fill="#595959" d="M.004 512.002l80.153-21.594-29.279-29.28z"/><path fill="#a8eaef" d="M511.99 380.664L380.658 511.996.006 131.343 131.337.012z"/><path fill="#80cdd8" d="M511.999 380.66l-65.67 65.668L65.678 65.676l65.67-65.67z"/><path d="M89.628 142.674L50.48 181.82l-24.825-24.825 39.148-39.147zm38.075 38.063l-39.147 39.147L63.73 195.06l39.147-39.147zm56.304 19.818l-57.392 57.391-24.825-24.824 57.392-57.392zm19.82 56.314l-39.147 39.147-24.825-24.825 39.147-39.147zm38.073 38.067l-39.148 39.147-24.825-24.825 39.148-39.147zm56.303 19.817l-57.392 57.392-24.824-24.825 57.391-57.392zm19.832 56.315l-39.147 39.147-24.825-24.825 39.147-39.147zm38.062 38.066l-39.148 39.147-24.824-24.825 39.147-39.147zm56.311 19.825l-57.392 57.392-24.825-24.825 57.392-57.392z" fill="#e9e9e9"/></svg>