<svg xmlns="http://www.w3.org/2000/svg" viewBox="0 0 400.196 400.196"><path d="M276.898 75.755h-31.347V31.347H153.6v44.408h-31.347V26.122C122.253 11.494 133.747 0 148.376 0h102.4c14.629 0 26.122 11.494 26.122 26.122v49.633z" fill="#4dcfe0"/><g fill="#1185e0"><path d="M199.576 338.547c8.882 0 15.673-6.792 15.673-15.673v-185.47c0-8.882-6.792-15.673-15.673-15.673-8.882 0-15.673 6.792-15.673 15.673v185.469c-.001 8.882 6.791 15.674 15.673 15.674zm53.289 0h.522c8.359 0 15.151-6.792 15.673-15.151l6.792-185.469c.522-8.882-6.269-15.673-15.151-16.196-8.882-.522-15.673 6.269-16.196 15.151l-6.792 185.469c-.521 8.359 6.271 15.673 15.152 16.196zm-107.102 0h.522c8.882-.522 15.151-7.837 15.151-16.196l-6.792-185.469c-.522-8.882-7.314-15.673-16.196-15.151-8.882.522-15.151 7.837-15.151 16.196l6.792 185.469c.523 8.359 7.315 15.151 15.674 15.151z"/><path d="M375.641 60.082H23.51c-8.882 0-15.673 6.792-15.673 15.673s6.792 15.673 15.673 15.673h22.465L72.098 386.09c.522 7.837 7.314 14.106 15.673 14.106h224.131c8.359 0 15.151-6.269 15.673-14.106l26.122-294.661h22.988c8.882 0 15.673-6.792 15.673-15.673s-7.836-15.674-16.717-15.674zm-78.368 308.767H101.355L76.8 91.429h243.984l-23.511 277.42z"/></g></svg>