<svg xmlns="http://www.w3.org/2000/svg" viewBox="0 0 512 512"><path fill="#e9e9e9" d="M365.531 239.545l-93.076-93.076L46.042 372.882 0 512l139.118-46.042z"/><path fill="#d4d4d4" d="M365.531 239.545l-46.538-46.538L0 512l139.118-46.042z"/><path d="M381.359 223.717l111.364-111.364c25.702-25.702 25.702-67.374 0-93.076-25.702-25.702-67.374-25.702-93.076 0L288.283 130.641l93.076 93.076z" fill="#80cdd8"/><g fill="#5293a9"><path d="M381.359 223.717l111.364-111.364c25.702-25.702 25.702-67.374 0-93.076L334.82 177.18l46.539 46.537z"/><path d="M377.099 289.135l-154.241-154.24 45.939-45.94 154.24 154.242z"/></g><path fill="#3a7484" d="M377.101 289.141l-77.12-77.12 45.939-45.94 77.12 77.121z"/></svg>