<svg xmlns="http://www.w3.org/2000/svg" viewBox="0 0 435.722 435.722"><path d="M420.049 427.886H122.253c-8.882 0-15.673-6.792-15.673-15.673v-106.58h31.347v90.906h266.449V145.763H313.47v-31.347h106.58c8.882 0 15.673 6.792 15.673 15.673v282.122c-.001 8.883-6.792 15.675-15.674 15.675z" fill="#1185e0"/><path d="M313.469 321.306H15.673C6.792 321.306 0 314.514 0 305.633V23.51C0 14.629 6.792 7.837 15.673 7.837h297.796c8.882 0 15.673 6.792 15.673 15.673v282.122c.001 8.882-6.791 15.674-15.673 15.674zM31.347 289.959h266.449V39.184H31.347v250.775z" fill="#4dcfe0"/></svg>