<svg xmlns="http://www.w3.org/2000/svg" viewBox="0 0 512 512"><linearGradient id="a" gradientUnits="userSpaceOnUse" x1="0" y1="258" x2="512" y2="258" gradientTransform="matrix(1 0 0 -1 0 514)"><stop offset="0" stop-color="#00f2fe"/><stop offset=".021" stop-color="#03effe"/><stop offset=".293" stop-color="#24d2fe"/><stop offset=".554" stop-color="#3cbdfe"/><stop offset=".796" stop-color="#4ab0fe"/><stop offset="1" stop-color="#4facfe"/></linearGradient><path d="M191.142 162.857c7.811 7.811 7.811 20.475 0 28.285C187.237 195.048 182.119 197 177 197s-10.237-1.952-14.142-5.857L40 68.285V147c0 11.046-8.954 20-20 20s-20-8.954-20-20V60C0 26.916 26.916 0 60 0h87c11.046 0 20 8.954 20 20s-8.954 20-20 20H68.285l122.857 122.857zm-28.284 158L40 443.715V365c0-11.046-8.954-20-20-20s-20 8.954-20 20v87c0 33.084 26.916 60 60 60h87c11.046 0 20-8.954 20-20s-8.954-20-20-20H68.285l122.857-122.857c7.811-7.811 7.811-20.475 0-28.285s-20.474-7.811-28.284-.001zM492 345c-11.046 0-20 8.954-20 20v78.715L349.142 320.857c-7.811-7.811-20.474-7.811-28.284 0s-7.811 20.475 0 28.285L443.715 472H365c-11.046 0-20 8.954-20 20s8.954 20 20 20h87c33.084 0 60-26.916 60-60v-87c0-11.046-8.954-20-20-20zM452 0h-87c-11.046 0-20 8.954-20 20s8.954 20 20 20h78.715L320.858 162.857c-7.811 7.811-7.811 20.475 0 28.285C324.763 195.048 329.881 197 335 197s10.237-1.952 14.142-5.857L472 68.285V147c0 11.046 8.954 20 20 20s20-8.954 20-20V60c0-33.084-26.916-60-60-60z" fill="url(#a)"/></svg>