<svg xmlns="http://www.w3.org/2000/svg" viewBox="0 2 98 98" width="512" height="512"><linearGradient id="a" gradientUnits="userSpaceOnUse" x1="49" y1="10.3" x2="49" y2="96.066"><stop offset="0" stop-color="#00efd1"/><stop offset="1" stop-color="#00acea"/></linearGradient><path d="M85.5 40.3l-4.3-.7 2.4-3.5c2.2-2.9 1.9-7.2-.7-9.6l-7.6-7.6c-2.6-2.6-6.7-2.9-9.6-.7l-3.4 2.5-.7-4c-.5-3.7-3.6-6.4-7.3-6.4H43.6c-3.7 0-6.8 2.6-7.3 6.2l-.7 4.3-3.5-2.4c-2.9-2.2-7.2-1.9-9.6.7L15 26.6c-2.6 2.6-2.9 6.7-.7 9.6l2.5 3.5-4.1.7c-3.7.5-6.4 3.6-6.4 7.3v10.8c0 3.7 2.6 6.8 6.2 7.3l4.3.7-2.4 3.5c-2.2 2.9-1.9 7.2.7 9.6l7.6 7.6c1.4 1.4 3.3 2.2 5.2 2.2 1.6 0 3.1-.5 4.3-1.5l3.5-2.5.7 4.1c.5 3.7 3.6 6.4 7.3 6.4h10.8c3.7 0 6.8-2.6 7.3-6.2l.7-4.3 3.4 2.4c1.3 1 2.8 1.5 4.5 1.5 2 0 3.8-.8 5.2-2.2l7.6-7.6c2.6-2.6 2.9-6.7.7-9.6l-2.6-3.5 4-.7c3.7-.5 6.4-3.6 6.4-7.3V47.6c0-3.7-2.6-6.8-6.2-7.3zm.2 18.1c0 .7-.5 1.2-1.3 1.3l-8.9 1.5c-1 .2-1.9.9-2.3 1.8-.4.9-.2 2.1.4 2.9l5.5 7.4c.4.5.3 1.3-.1 1.8l-7.6 7.6c-.3.3-.6.4-1 .4s-.6-.1-1-.4L62 77.6c-.8-.6-1.9-.7-2.9-.3-1 .4-1.6 1.3-1.8 2.3l-1.5 9.1c-.1.7-.7 1.1-1.3 1.1H43.7c-.7 0-1.2-.5-1.3-1.3l-1.5-8.9c-.2-1-.9-1.9-1.8-2.3-.4-.2-.8-.2-1.1-.2-.6 0-1.2.2-1.7.6L28.7 83c-.3.2-.5.3-.8.3-.3 0-.7-.2-1-.4l-7.7-7.7c-.4-.4-.5-1.2-.1-1.7 0 0 0-.1.1-.1l5.2-7.4c.6-.8.7-1.9.3-2.9-.4-1-1.3-1.6-2.3-1.8l-9.1-1.5c-.7-.1-1.1-.7-1.1-1.3V47.7c0-.7.5-1.2 1.3-1.3l8.9-1.5c1-.2 1.9-.9 2.3-1.8.4-1 .3-2-.3-2.9L19 32.7c-.4-.5-.3-1.3.1-1.8l7.7-7.7c.4-.4 1.2-.5 1.7-.1 0 0 .1 0 .1.1l7.4 5.2c.8.6 1.9.7 2.9.3 1-.4 1.6-1.3 1.8-2.3l1.5-9.1c.1-.7.7-1.1 1.3-1.1h10.8c.7 0 1.2.5 1.3 1.3l1.5 8.9c.2 1 .9 1.9 1.8 2.3 1 .4 2.1.3 2.9-.3l7.4-5.3c.5-.4 1.3-.3 1.8.1l7.7 7.7c.4.4.5 1.2.1 1.7 0 0 0 .1-.1.1L73.5 40c-.6.8-.7 1.9-.3 2.9.4 1 1.3 1.6 2.3 1.8l9 1.5h.1c.7.1 1.1.7 1.1 1.3v10.9z" fill="url(#a)"/><linearGradient id="b" gradientUnits="userSpaceOnUse" x1="49" y1="10.25" x2="49" y2="96.016"><stop offset="0" stop-color="#00efd1"/><stop offset="1" stop-color="#00acea"/></linearGradient><path d="M49 35.2c-9.8 0-17.8 8-17.8 17.8s8 17.8 17.8 17.8 17.8-8 17.8-17.8c0-9.9-8-17.8-17.8-17.8zm0 29.6c-6.5 0-11.8-5.3-11.8-11.8S42.5 41.2 49 41.2 60.8 46.5 60.8 53 55.5 64.8 49 64.8z" fill="url(#b)"/></svg>