<?xml version="1.0" encoding="iso-8859-1"?>
<!-- Generator: Adobe Illustrator 19.0.0, SVG Export Plug-In . SVG Version: 6.00 Build 0)  -->
<svg version="1.1" id="Capa_1" xmlns="http://www.w3.org/2000/svg" xmlns:xlink="http://www.w3.org/1999/xlink" x="0px" y="0px"
	 viewBox="0 0 435.722 435.722" style="enable-background:new 0 0 435.722 435.722;" xml:space="preserve">
<path style="fill:#1185E0;" d="M420.049,427.886H122.253c-8.882,0-15.673-6.792-15.673-15.673v-106.58h31.347v90.906h266.449
	V145.763h-90.906v-31.347h106.58c8.882,0,15.673,6.792,15.673,15.673v282.122C435.722,421.094,428.931,427.886,420.049,427.886z"/>
<path style="fill:#4DCFE0;" d="M313.469,321.306H15.673C6.792,321.306,0,314.514,0,305.633V23.51C0,14.629,6.792,7.837,15.673,7.837
	h297.796c8.882,0,15.673,6.792,15.673,15.673v282.122C329.143,314.514,322.351,321.306,313.469,321.306z M31.347,289.959h266.449
	V39.184H31.347L31.347,289.959L31.347,289.959z"/>
<g>
</g>
<g>
</g>
<g>
</g>
<g>
</g>
<g>
</g>
<g>
</g>
<g>
</g>
<g>
</g>
<g>
</g>
<g>
</g>
<g>
</g>
<g>
</g>
<g>
</g>
<g>
</g>
<g>
</g>
</svg>
