<?xml version="1.0" encoding="iso-8859-1"?>
<!-- Generator: Adobe Illustrator 19.0.0, SVG Export Plug-In . SVG Version: 6.00 Build 0)  -->
<svg version="1.1" id="Layer_1" xmlns="http://www.w3.org/2000/svg" xmlns:xlink="http://www.w3.org/1999/xlink" x="0px" y="0px"
	 viewBox="0 0 512 512" style="enable-background:new 0 0 512 512;" xml:space="preserve">
<path style="fill:#22E0C3;" d="M372.647,469.22h-146.71l73.383-73.294L129.764,226.158L3.135,352.635
	c-4.18,4.174-4.18,11.004,0,15.178l109.621,109.491c4.179,4.174,12.43,7.589,18.336,7.589h241.555c4.329,0,7.837-3.509,7.837-7.837
	S376.975,469.22,372.647,469.22z"/>
<path style="fill:#4351B5;" d="M425.71,125.211L216.615,334.05l71.537,71.455c2.09,2.087,5.508,2.087,7.597,0l201.499-201.248
	c2.091-2.088,2.091-5.502,0-7.589L425.71,125.211z"/>
<path style="opacity:0.1;enable-background:new    ;" d="M23.585,388.241L157.78,254.209l-28.017-28.051L3.135,352.635
	c-4.18,4.174-4.18,11.004,0,15.178L23.585,388.241z"/>
<g>
	<path style="fill:#22E0C3;" d="M334.877,453.563c-2.092,2.085-5.514,2.085-7.607,0l-12.681-12.635c-2.093-2.085-2.092-5.495,0-7.58
		l12.68-12.633c2.093-2.085,5.516-2.085,7.608,0l12.68,12.633c2.092,2.085,2.093,5.495,0.001,7.58L334.877,453.563z"/>
	<path style="fill:#22E0C3;" d="M476.267,443.732c-2.092,2.085-5.515,2.085-7.607,0l-12.68-12.635c-2.092-2.085-2.092-5.495,0-7.58
		l12.68-12.632c2.092-2.085,5.516-2.085,7.608,0l12.68,12.633c2.093,2.085,2.094,5.495,0.001,7.58L476.267,443.732z"/>
</g>
<g>
	<path style="fill:#4BC8DD;" d="M395.699,394.396c-2.092,2.085-5.515,2.085-7.607,0l-12.682-12.635
		c-2.092-2.085-2.092-5.495,0.001-7.58l12.681-12.633c2.092-2.085,5.515-2.085,7.608,0l12.679,12.633
		c2.093,2.085,2.093,5.495,0.001,7.58L395.699,394.396z"/>
	<path style="fill:#4BC8DD;" d="M504.163,484.893H406.62c-4.329,0-7.837-3.509-7.837-7.837c0-4.328,3.508-7.837,7.837-7.837h97.543
		c4.329,0,7.837,3.509,7.837,7.837C512,481.384,508.492,484.893,504.163,484.893z"/>
</g>
<g>
	<path style="fill:#38CCAA;" d="M246.863,448.319l-22.797-22.8c-3.062-3.061-8.024-3.059-11.083,0
		c-3.062,3.06-3.062,8.023-0.001,11.083l22.79,22.793L246.863,448.319z"/>
	<path style="fill:#38CCAA;" d="M248.764,400.817c-3.061-3.059-8.023-3.06-11.082-0.001c-3.062,3.06-3.062,8.023-0.001,11.083
		l22.808,22.81l11.09-11.077L248.764,400.817z"/>
</g>
<polygon style="fill:#FFF297;" points="369.635,69.2 160.54,278.039 201.301,318.754 410.398,109.917 "/>
<path style="fill:#4351B5;" d="M373.4,72.96l-44.34-44.288c-2.09-2.087-5.508-2.087-7.597,0L119.964,229.921
	c-2.089,2.088-2.09,5.502,0,7.589l44.34,44.289L373.4,72.96z"/>
<path style="opacity:0.1;enable-background:new    ;" d="M140.512,258.034L349.607,49.196l-20.548-20.524
	c-2.09-2.087-5.508-2.087-7.597,0L119.964,229.921c-2.089,2.088-2.09,5.502,0,7.589L140.512,258.034z"/>
<polygon style="fill:#FFD655;" points="404.114,103.641 195.021,312.474 224.225,341.65 433.318,132.814 "/>
<g>
</g>
<g>
</g>
<g>
</g>
<g>
</g>
<g>
</g>
<g>
</g>
<g>
</g>
<g>
</g>
<g>
</g>
<g>
</g>
<g>
</g>
<g>
</g>
<g>
</g>
<g>
</g>
<g>
</g>
</svg>
