<?xml version="1.0" encoding="utf-8"?>
<!-- Generator: Adobe Illustrator 19.0.0, SVG Export Plug-In . SVG Version: 6.00 Build 0)  -->
<svg xmlns="http://www.w3.org/2000/svg" xmlns:xlink="http://www.w3.org/1999/xlink" version="1.1" id="Layer_1" x="0px" y="0px" viewBox="0 2 98 98" style="enable-background:new 0 2 98 98;" xml:space="preserve" width="512" height="512">
<style type="text/css">
	.st0{fill:url(#SVGID_1_);}
	.st1{fill:url(#SVGID_2_);}
</style>
<g>
	<linearGradient id="SVGID_1_" gradientUnits="userSpaceOnUse" x1="49" y1="10.3" x2="49" y2="96.066">
		<stop offset="0" style="stop-color:#00EFD1"/>
		<stop offset="1" style="stop-color:#00ACEA"/>
	</linearGradient>
	<path class="st0" d="M85.5,40.3l-4.3-0.7l2.4-3.5c2.2-2.9,1.9-7.2-0.7-9.6l-7.6-7.6c-2.6-2.6-6.7-2.9-9.6-0.7l-3.4,2.5l-0.7-4   c-0.5-3.7-3.6-6.4-7.3-6.4H43.6c-3.7,0-6.8,2.6-7.3,6.2l-0.7,4.3l-3.5-2.4c-2.9-2.2-7.2-1.9-9.6,0.7L15,26.6   c-2.6,2.6-2.9,6.7-0.7,9.6l2.5,3.5l-4.1,0.7C9,40.9,6.3,44,6.3,47.7v10.8c0,3.7,2.6,6.8,6.2,7.3l4.3,0.7L14.4,70   c-2.2,2.9-1.9,7.2,0.7,9.6l7.6,7.6c1.4,1.4,3.3,2.2,5.2,2.2c1.6,0,3.1-0.5,4.3-1.5l3.5-2.5l0.7,4.1c0.5,3.7,3.6,6.4,7.3,6.4h10.8   c3.7,0,6.8-2.6,7.3-6.2l0.7-4.3l3.4,2.4c1.3,1,2.8,1.5,4.5,1.5c2,0,3.8-0.8,5.2-2.2l7.6-7.6c2.6-2.6,2.9-6.7,0.7-9.6l-2.6-3.5   l4-0.7c3.7-0.5,6.4-3.6,6.4-7.3V47.6C91.7,43.9,89.1,40.8,85.5,40.3z M85.7,58.4c0,0.7-0.5,1.2-1.3,1.3l-8.9,1.5   c-1,0.2-1.9,0.9-2.3,1.8c-0.4,0.9-0.2,2.1,0.4,2.9l5.5,7.4c0.4,0.5,0.3,1.3-0.1,1.8l-7.6,7.6c-0.3,0.3-0.6,0.4-1,0.4   c-0.4,0-0.6-0.1-1-0.4L62,77.6c-0.8-0.6-1.9-0.7-2.9-0.3c-1,0.4-1.6,1.3-1.8,2.3l-1.5,9.1c-0.1,0.7-0.7,1.1-1.3,1.1H43.7   c-0.7,0-1.2-0.5-1.3-1.3l-1.5-8.9c-0.2-1-0.9-1.9-1.8-2.3c-0.4-0.2-0.8-0.2-1.1-0.2c-0.6,0-1.2,0.2-1.7,0.6L28.7,83   c-0.3,0.2-0.5,0.3-0.8,0.3c-0.3,0-0.7-0.2-1-0.4l-7.7-7.7c-0.4-0.4-0.5-1.2-0.1-1.7c0,0,0-0.1,0.1-0.1l5.2-7.4   c0.6-0.8,0.7-1.9,0.3-2.9c-0.4-1-1.3-1.6-2.3-1.8l-9.1-1.5c-0.7-0.1-1.1-0.7-1.1-1.3V47.7c0-0.7,0.5-1.2,1.3-1.3l8.9-1.5   c1-0.2,1.9-0.9,2.3-1.8c0.4-1,0.3-2-0.3-2.9L19,32.7c-0.4-0.5-0.3-1.3,0.1-1.8l7.7-7.7c0.4-0.4,1.2-0.5,1.7-0.1c0,0,0.1,0,0.1,0.1   l7.4,5.2c0.8,0.6,1.9,0.7,2.9,0.3c1-0.4,1.6-1.3,1.8-2.3l1.5-9.1c0.1-0.7,0.7-1.1,1.3-1.1h10.8c0.7,0,1.2,0.5,1.3,1.3l1.5,8.9   c0.2,1,0.9,1.9,1.8,2.3c1,0.4,2.1,0.3,2.9-0.3l7.4-5.3c0.5-0.4,1.3-0.3,1.8,0.1l7.7,7.7c0.4,0.4,0.5,1.2,0.1,1.7c0,0,0,0.1-0.1,0.1   L73.5,40c-0.6,0.8-0.7,1.9-0.3,2.9c0.4,1,1.3,1.6,2.3,1.8l9,1.5c0,0,0,0,0.1,0c0.7,0.1,1.1,0.7,1.1,1.3V58.4z"/>
	<linearGradient id="SVGID_2_" gradientUnits="userSpaceOnUse" x1="49" y1="10.25" x2="49" y2="96.016">
		<stop offset="0" style="stop-color:#00EFD1"/>
		<stop offset="1" style="stop-color:#00ACEA"/>
	</linearGradient>
	<path class="st1" d="M49,35.2c-9.8,0-17.8,8-17.8,17.8s8,17.8,17.8,17.8s17.8-8,17.8-17.8C66.8,43.1,58.8,35.2,49,35.2z M49,64.8   c-6.5,0-11.8-5.3-11.8-11.8S42.5,41.2,49,41.2S60.8,46.5,60.8,53S55.5,64.8,49,64.8z"/>
</g>
</svg>
