<?xml version="1.0" encoding="iso-8859-1"?>
<!-- Generator: Adobe Illustrator 19.0.0, SVG Export Plug-In . SVG Version: 6.00 Build 0)  -->
<svg version="1.1" id="Capa_1" xmlns="http://www.w3.org/2000/svg" xmlns:xlink="http://www.w3.org/1999/xlink" x="0px" y="0px"
	 viewBox="0 0 412.212 412.212" style="enable-background:new 0 0 412.212 412.212;" xml:space="preserve">
<path style="fill:#1185E0;" d="M409.6,214.988C409.6,214.465,409.6,214.465,409.6,214.988c0.522-1.045,1.045-2.09,1.567-2.612
	v-0.522c0-0.522,0.522-1.567,0.522-2.09c0-1.045,0.522-2.09,0.522-3.135c0-1.045,0-2.09-0.522-3.135c0-0.522-0.522-1.567-0.522-2.09
	c0-0.522,0-0.522,0-1.045c-0.522-1.045-1.045-1.567-1.045-2.612c0,0,0,0,0-0.522c-0.522-1.045-1.045-1.567-2.09-2.612l0,0
	l-61.649-60.082c-6.269-6.269-16.196-6.269-21.943,0c-6.269,6.269-6.269,16.196,0,21.943l33.959,33.959H53.29l33.959-33.959
	c6.269-6.269,6.269-16.196,0-21.943c-6.269-6.269-16.196-6.269-21.943,0L4.18,195.135l0,0c-0.522,0.522-1.567,1.567-2.09,2.612
	c0,0,0,0,0,0.522c-0.522,0.522-1.045,1.567-1.045,2.612v0.522c0,0.522-0.522,1.567-0.522,2.09c0,1.045-0.522,2.09-0.522,3.135
	s0,2.09,0.522,3.135c0,1.045,0.522,1.567,0.522,2.09v0.522c0.522,1.045,1.045,1.567,1.045,2.612c0,0,0,0,0,0.522
	c0.522,1.045,1.045,1.567,2.09,2.612l0,0l61.127,60.604c3.135,3.135,6.792,4.702,10.971,4.702c4.18,0,7.837-1.567,10.971-4.702
	c6.269-6.269,6.269-16.196,0-21.943L53.29,221.78H358.4l-33.959,33.959c-6.269,6.269-6.269,16.196,0,21.943
	c3.135,3.135,7.314,4.702,10.971,4.702c4.18,0,7.837-1.567,10.971-4.702l61.127-60.604l0,0
	C408.555,216.555,409.078,215.51,409.6,214.988z"/>
<path style="fill:#4DCFE0;" d="M255.478,324.702l-33.959,33.959V53.551l33.959,33.959c3.135,3.135,7.314,4.702,10.971,4.702
	c4.18,0,7.837-1.567,10.971-4.702c6.269-6.269,6.269-16.196,0-21.943L216.816,4.441l0,0c-0.522-0.522-1.567-1.567-2.612-2.09
	c0,0,0,0-0.522,0c-0.522-0.522-1.567-1.045-2.612-1.045h-0.522c-0.522-0.522-1.567-0.522-2.09-0.522
	c-1.045,0-2.09-0.522-3.135-0.522s-2.09,0-3.135,0.522c-0.522,0-1.567,0.522-2.09,0.522h-0.522
	c-1.045,0.522-1.567,1.045-2.612,1.045c0,0,0,0-0.522,0c-1.045,0.522-1.567,1.045-2.612,2.09l0,0l-59.559,61.127
	c-6.269,6.269-6.269,16.196,0,21.943c6.269,6.269,16.196,6.269,21.943,0l33.959-33.959v305.11l-33.959-33.959
	c-6.269-6.269-16.196-6.269-21.943,0c-6.269,6.269-6.269,16.196,0,21.943l60.604,61.127l0,0c0.522,0.522,1.567,1.567,2.612,2.09
	c0,0,0,0,0.522,0c0.522,0.522,1.567,1.045,2.612,1.045c0.522,0,0.522,0,1.045,0c0.522,0,1.567,0.522,2.09,0.522
	c1.045,0,2.09,0.522,3.135,0.522c1.045,0,2.09,0,3.135-0.522c0.522,0,1.567-0.522,2.09-0.522h0.522
	c1.045-0.522,1.567-0.522,2.09-1.045h0.522c1.045-0.522,1.567-1.045,2.612-2.09l0,0l60.604-61.127
	c6.269-6.269,6.269-16.196,0-21.943C271.151,318.433,261.224,318.433,255.478,324.702z"/>
<g>
</g>
<g>
</g>
<g>
</g>
<g>
</g>
<g>
</g>
<g>
</g>
<g>
</g>
<g>
</g>
<g>
</g>
<g>
</g>
<g>
</g>
<g>
</g>
<g>
</g>
<g>
</g>
<g>
</g>
</svg>
