<?xml version="1.0" encoding="iso-8859-1"?>
<!-- Generator: Adobe Illustrator 19.0.0, SVG Export Plug-In . SVG Version: 6.00 Build 0)  -->
<svg version="1.1" id="Layer_1" xmlns="http://www.w3.org/2000/svg" xmlns:xlink="http://www.w3.org/1999/xlink" x="0px" y="0px"
	 viewBox="0 0 512.001 512.001" style="enable-background:new 0 0 512.001 512.001;" xml:space="preserve">
<path style="fill:#00479B;" d="M256,512H15c-8.284,0-15-6.715-15-15V256c0-8.284,6.716-15,15-15h241c8.284,0,15,6.716,15,15v241
	C271,505.286,264.284,512,256,512z M30,482h211V271H30V482z"/>
<path style="fill:#003068;" d="M256,241H135.5v30H241v211H135.5v30H256c8.284,0,15-6.715,15-15V256C271,247.717,264.284,241,256,241
	z"/>
<path style="fill:#FF728B;" d="M507.607,73.249L438.749,4.395C435.936,1.582,432.122,0,428.143,0
	c-3.977,0.001-7.793,1.582-10.606,4.394l-68.854,68.857c-5.858,5.856-5.859,15.354-0.001,21.211l68.854,68.855
	c2.929,2.93,6.768,4.395,10.607,4.393c3.837,0.002,7.678-1.463,10.605-4.391l68.858-68.857c2.813-2.813,4.394-6.627,4.394-10.604
	C512.001,79.879,510.42,76.064,507.607,73.249z"/>
<path style="fill:#FF3F62;" d="M512.001,83.859c0-3.979-1.581-7.795-4.394-10.609l-34.428-34.427l-90.069,90.068l34.427,34.428
	c2.929,2.93,6.768,4.395,10.607,4.393c3.837,0.002,7.678-1.463,10.605-4.391l68.858-68.857
	C510.42,91.651,512.001,87.836,512.001,83.859z"/>
<path style="fill:#FFE477;" d="M438.749,142.106L369.896,73.25c-5.858-5.857-15.355-5.857-21.213,0L245.394,176.534
	c-2.814,2.814-4.394,6.629-4.393,10.607L241,256c0.001,8.285,6.717,15,15,15h68.857c3.979,0,7.793-1.58,10.607-4.393
	l103.285-103.289C444.608,157.461,444.608,147.965,438.749,142.106z"/>
<path style="fill:#FFB655;" d="M438.749,163.319c5.859-5.857,5.859-15.354,0-21.213l-34.427-34.428L245.394,266.606
	C248.108,269.322,251.858,271,256,271h68.857c3.979,0,7.793-1.58,10.607-4.393L438.749,163.319z"/>
<g>
</g>
<g>
</g>
<g>
</g>
<g>
</g>
<g>
</g>
<g>
</g>
<g>
</g>
<g>
</g>
<g>
</g>
<g>
</g>
<g>
</g>
<g>
</g>
<g>
</g>
<g>
</g>
<g>
</g>
</svg>
