<?xml version="1.0" encoding="iso-8859-1"?>
<!-- Generator: Adobe Illustrator 21.0.0, SVG Export Plug-In . SVG Version: 6.00 Build 0)  -->
<svg xmlns="http://www.w3.org/2000/svg" xmlns:xlink="http://www.w3.org/1999/xlink" version="1.1" id="Capa_1" x="0px" y="0px" viewBox="0 0 512 512" style="enable-background:new 0 0 512 512;" xml:space="preserve" width="512" height="512">
<g>
	<circle style="fill:#FF0059;" cx="256" cy="256" r="256"/>
	<path style="fill:#E50048;" d="M512,256c0-7.091-0.302-14.111-0.867-21.056L400,123.811h-96.915   c-0.017-0.017-10.053-10.051-10.053-10.051L202.952,412L93,414.133l90.117,87.323C206.219,508.305,230.676,512,256,512   C397.385,512,512,397.385,512,256z"/>
	<g>
		<path style="fill:#FFE470;" d="M364.791,414.133H93l0,0c9.196,0,16.678-7.482,16.678-16.678V123.811H400v255.113    C400,398.338,384.205,414.133,364.791,414.133z"/>
		<path style="fill:#FFB64C;" d="M400,378.924V123.811H255.457v273.644c0,9.196-7.482,16.678-16.678,16.678l0,0h126.012    C384.205,414.133,400,398.338,400,378.924z"/>
		<path style="fill:#57555C;" d="M255.457,202.877c-28.951,0-52.505-23.554-52.505-52.505s23.554-52.505,52.505-52.505    s52.505,23.554,52.505,52.505S284.408,202.877,255.457,202.877z"/>
		<path style="fill:#3A3A41;" d="M307.962,150.372c0-28.951-23.554-52.505-52.505-52.505v105.01    C284.408,202.877,307.962,179.324,307.962,150.372z"/>
		<path style="fill:#D97F4A;" d="M250.431,354.999c-5.817,0-11.18-3.269-13.818-8.623c-2.996-6.082-1.714-13.313,3.19-17.994    l42.586-40.65l-72.775,17.263c-7.078,1.679-14.254-1.715-17.444-8.256c-3.19-6.54-1.45-14.283,4.233-18.828l55.736-44.589    l11.576,14.47l-44.997,35.998l70.484-16.719c6.876-1.632,13.762,1.445,17.135,7.655c3.373,6.21,2.204,13.661-2.908,18.541    l-43.721,41.734l62.9-9.709l2.827,18.314l-72.613,11.209C252.021,354.938,251.221,354.999,250.431,354.999z"/>
		<g>
			<path style="fill:#AD5E2E;" d="M259.708,335.001l43.721-41.734c5.112-4.88,6.28-12.331,2.908-18.541     c-3.373-6.21-10.259-9.287-17.135-7.655l-33.746,8.005v19.045l26.933-6.389l-26.933,25.709v40.967l69.979-10.802l-2.827-18.314     L259.708,335.001z"/>
			<polygon style="fill:#AD5E2E;" points="255.457,254.4 263.716,247.792 255.457,237.469    "/>
		</g>
		<rect x="246.191" y="125.664" style="fill:#C5C3CB;" width="18.531" height="24.708"/>
		<rect x="255.457" y="125.664" style="fill:#ABAAAF;" width="9.266" height="24.708"/>
	</g>
</g>















</svg>
