<svg height="511pt" viewBox="-33 1 511 511.99901" width="511pt" xmlns="http://www.w3.org/2000/svg"><path d="m205.480469 339.320312h-30.066407v-86.855468h240.535157v-135.300782h-45.105469v-30.066406h75.171875v195.433594h-240.535156zm0 0" fill="#dad0cb"/><path d="m370.84375 87.097656v30.066406h45.105469v135.300782h-225.515625v86.855468h15.046875v-56.789062h240.535156v-195.433594zm0 0" fill="#c6bcb7"/><path d="m135.320312 324.289062h110.25v187.710938h-110.25zm0 0" fill="#d11372"/><path d="m.5 73.675781v89.746094c0 22.519531 20.65625 40.835937 46.046875 40.835937h287.769531c25.390625 0 46.046875-18.320312 46.046875-40.835937v-89.746094zm0 0" fill="#f3eee9"/><path d="m190.433594 73.675781v130.582031h143.882812c25.390625 0 46.046875-18.320312 46.046875-40.835937v-89.746094zm0 0" fill="#e9dfda"/><path d="m334.316406 0h-287.769531c-25.390625 0-46.046875 20.65625-46.046875 46.046875v78.921875l2.925781 3.972656c8.488281 11.527344 22.085938 18.410156 36.382813 18.410156h12.046875c24.902343 0 45.160156-20.257812 45.160156-45.15625 0-8.324218 6.769531-15.09375 15.09375-15.09375h12.046875c8.324219 0 15.09375 6.769532 15.09375 15.09375 0 24.898438 20.257812 45.15625 45.15625 45.15625h12.050781c24.902344 0 45.160157-20.257812 45.160157-45.15625 0-8.324218 6.769531-15.09375 15.089843-15.09375h12.050781c8.320313 0 15.09375 6.769532 15.09375 15.09375 0 24.898438 20.257813 45.15625 45.15625 45.15625h12.050782c14.292968 0 27.894531-6.882812 36.378906-18.410156l2.929688-3.972656v-78.921875c-.003907-25.390625-20.660157-46.046875-46.050782-46.046875zm0 0" fill="#7ed6f4"/><path d="m334.316406 0h-143.882812v147.351562h6.023437c24.898438 0 45.15625-20.257812 45.15625-45.160156 0-8.320312 6.773438-15.089844 15.09375-15.089844h12.050781c8.320313 0 15.089844 6.769532 15.089844 15.089844 0 24.902344 20.257813 45.160156 45.160156 45.160156h12.050782c14.292968 0 27.890625-6.882812 36.378906-18.410156l2.925781-3.976562v-78.917969c0-25.390625-20.65625-46.046875-46.046875-46.046875zm0 0" fill="#0fa7db"/><path d="m190.433594 324.289062h55.136718v187.710938h-55.136718zm0 0" fill="#b20042"/></svg>